<svg width="33" height="31" viewBox="0 0 33 31" fill="none" xmlns="http://www.w3.org/2000/svg">
<rect width="33" height="31" rx="4" fill="#FBBC04"/>
<g clip-path="url(#clip0_823_3)">
<path d="M5 12.0283C5 11.7436 5.10276 11.501 5.30829 11.3006C5.51743 11.1002 5.76803 11 6.0601 11C6.36298 11 6.61538 11.0984 6.81731 11.2953C7.02284 11.4922 7.1256 11.7365 7.1256 12.0283C7.1256 12.3201 7.02103 12.568 6.8119 12.7719C6.60637 12.9758 6.35577 13.0777 6.0601 13.0777C5.77164 13.0777 5.52284 12.974 5.3137 12.7666C5.10457 12.5592 5 12.3131 5 12.0283ZM5.09736 19.0156V13.6895H7.02825V19.0156H5.09736ZM12.6695 16.3473C12.6695 15.9324 12.5559 15.6037 12.3287 15.3611C12.1016 15.1186 11.7915 14.9973 11.3984 14.9973C11.0054 14.9973 10.6953 15.1186 10.4682 15.3611C10.2446 15.6002 10.1328 15.9289 10.1328 16.3473C10.1328 16.7621 10.2464 17.0891 10.4736 17.3281C10.7007 17.5672 11.009 17.6867 11.3984 17.6867C11.7915 17.6867 12.1016 17.5672 12.3287 17.3281C12.5559 17.0891 12.6695 16.7621 12.6695 16.3473ZM14.3624 13.6895V19.0156H12.5937V18.1508C12.3413 18.5199 12.0565 18.7906 11.7392 18.9629C11.4255 19.1352 11.0559 19.2213 10.6304 19.2213C9.90205 19.2213 9.31971 18.9629 8.88341 18.4461C8.44712 17.9258 8.22897 17.2297 8.22897 16.3578C8.22897 15.4895 8.45613 14.8004 8.91046 14.2906C9.36839 13.7773 9.98318 13.5207 10.7548 13.5207C11.1659 13.5207 11.5192 13.6068 11.8149 13.7791C12.1142 13.9479 12.3702 14.2098 12.5829 14.5648V13.6895H14.3624ZM23.0486 19.0156V16.11C23.0486 15.6494 22.9892 15.3313 22.8702 15.1555C22.7548 14.9797 22.5529 14.8918 22.2644 14.8918C21.9038 14.8918 21.6532 15.0148 21.5126 15.2609C21.372 15.5035 21.3017 16.0027 21.3017 16.7586V19.0156H19.4411V16.11C19.4411 15.6424 19.3834 15.3225 19.268 15.1502C19.1526 14.9779 18.9507 14.8918 18.6623 14.8918C18.3017 14.8918 18.0493 15.0131 17.9051 15.2557C17.7608 15.4947 17.6887 15.9957 17.6887 16.7586V19.0156H15.8174V13.6895H17.7103V14.6176C17.9375 14.2414 18.1989 13.9654 18.4946 13.7896C18.7939 13.6104 19.1454 13.5207 19.5493 13.5207C19.9928 13.5207 20.3552 13.6051 20.6365 13.7738C20.9212 13.9391 21.125 14.1887 21.2476 14.5227C21.4603 14.1852 21.72 13.9338 22.0264 13.7686C22.3329 13.6033 22.6935 13.5207 23.1082 13.5207C23.4363 13.5207 23.723 13.5752 23.9681 13.6842C24.217 13.7896 24.4243 13.9496 24.5902 14.1641C24.7236 14.3328 24.8174 14.5297 24.8714 14.7547C24.929 14.9797 24.9579 15.3453 24.9579 15.8516V15.9676V19.0156H23.0486ZM26.256 18.1508C26.256 17.852 26.3588 17.6006 26.5643 17.3967C26.7734 17.1928 27.0313 17.0908 27.3377 17.0908C27.6515 17.0908 27.9129 17.1928 28.122 17.3967C28.3311 17.6006 28.4357 17.852 28.4357 18.1508C28.4357 18.4496 28.3293 18.7027 28.1166 18.9102C27.9074 19.1176 27.6479 19.2213 27.3377 19.2213C27.0349 19.2213 26.7789 19.1176 26.5697 18.9102C26.3606 18.7027 26.256 18.4496 26.256 18.1508Z" fill="black"/>
</g>
<defs>
<clipPath id="clip0_823_3">
<rect width="24" height="9" fill="white" transform="translate(5 11)"/>
</clipPath>
</defs>
</svg>
